<svg width="40" height="40" viewBox="0 0 40 40" fill="none" xmlns="http://www.w3.org/2000/svg">
<path d="M21.4024 2C23.4836 2.00555 24.5399 2.01665 25.4519 2.04255L25.8108 2.0555C26.2252 2.0703 26.634 2.0888 27.128 2.111C29.0963 2.20349 30.4394 2.51429 31.6178 2.97123C32.8388 3.44112 33.8674 4.0775 34.8959 5.10422C35.837 6.02871 36.5649 7.14745 37.0289 8.38235C37.4859 9.56077 37.7967 10.9038 37.8892 12.874C37.9114 13.3661 37.9299 13.775 37.9447 14.1912L37.9558 14.5501C37.9835 15.4603 37.9946 16.5166 37.9983 18.5978L38.0002 19.9779V22.4013C38.0047 23.7507 37.9905 25.1 37.9576 26.449L37.9465 26.8079C37.9317 27.2241 37.9132 27.633 37.891 28.1251C37.7985 30.0953 37.484 31.4365 37.0289 32.6168C36.5649 33.8517 35.837 34.9704 34.8959 35.8949C33.9714 36.8359 32.8527 37.5639 31.6178 38.0279C30.4394 38.4848 29.0963 38.7956 27.128 38.8881L25.8108 38.9436L25.4519 38.9547C24.5399 38.9806 23.4836 38.9936 21.4024 38.9973L20.0223 38.9991H17.6007C16.2507 39.0039 14.9007 38.9897 13.5511 38.9566L13.1923 38.9455C12.7531 38.9288 12.314 38.9097 11.8751 38.8881C9.90674 38.7956 8.56367 38.4848 7.3834 38.0279C6.14916 37.5636 5.03107 36.8357 4.10713 35.8949C3.1654 34.9706 2.43682 33.8518 1.97228 32.6168C1.51534 31.4383 1.20455 30.0953 1.11205 28.1251L1.05655 26.8079L1.0473 26.449C1.0132 25.1001 0.997781 23.7507 1.00105 22.4013V18.5978C0.995932 17.2484 1.0095 15.8991 1.04175 14.5501L1.0547 14.1912C1.0695 13.775 1.088 13.3661 1.1102 12.874C1.2027 10.9038 1.51349 9.56262 1.97043 8.38235C2.43605 7.14694 3.16591 6.02816 4.10898 5.10422C5.03239 4.16361 6.14982 3.4357 7.3834 2.97123C8.56367 2.51429 9.90489 2.20349 11.8751 2.111C12.3672 2.0888 12.7779 2.0703 13.1923 2.0555L13.5511 2.0444C14.9001 2.01153 16.2495 1.99735 17.5988 2.00185L21.4024 2ZM19.5006 11.2498C17.0474 11.2498 14.6947 12.2243 12.96 13.959C11.2254 15.6936 10.2508 18.0464 10.2508 20.4996C10.2508 22.9527 11.2254 25.3055 12.96 27.0401C14.6947 28.7748 17.0474 29.7493 19.5006 29.7493C21.9538 29.7493 24.3065 28.7748 26.0412 27.0401C27.7759 25.3055 28.7504 22.9527 28.7504 20.4996C28.7504 18.0464 27.7759 15.6936 26.0412 13.959C24.3065 12.2243 21.9538 11.2498 19.5006 11.2498ZM19.5006 14.9497C20.2294 14.9496 20.9511 15.093 21.6245 15.3718C22.2979 15.6506 22.9098 16.0593 23.4252 16.5746C23.9407 17.0898 24.3496 17.7016 24.6286 18.3749C24.9076 19.0482 25.0513 19.7698 25.0514 20.4986C25.0515 21.2274 24.9081 21.9492 24.6293 22.6225C24.3505 23.2959 23.9418 23.9078 23.4265 24.4232C22.9113 24.9387 22.2995 25.3476 21.6262 25.6266C20.9529 25.9056 20.2313 26.0493 19.5025 26.0494C18.0305 26.0494 16.6189 25.4647 15.5781 24.4239C14.5373 23.3831 13.9526 21.9715 13.9526 20.4996C13.9526 19.0276 14.5373 17.616 15.5781 16.5752C16.6189 15.5344 18.0305 14.9497 19.5025 14.9497M29.2147 8.47484C28.6014 8.47484 28.0132 8.71847 27.5796 9.15214C27.1459 9.58581 26.9023 10.174 26.9023 10.7873C26.9023 11.4006 27.1459 11.9888 27.5796 12.4224C28.0132 12.8561 28.6014 13.0997 29.2147 13.0997C29.828 13.0997 30.4162 12.8561 30.8499 12.4224C31.2835 11.9888 31.5272 11.4006 31.5272 10.7873C31.5272 10.174 31.2835 9.58581 30.8499 9.15214C30.4162 8.71847 29.828 8.47484 29.2147 8.47484Z" fill="white"/>
</svg>
