<svg width="40" height="40" viewBox="0 0 40 40" fill="none" xmlns="http://www.w3.org/2000/svg">
<path d="M20.5 10.6801C20.0539 10.6578 19.608 10.7263 19.1892 10.8816C18.7704 11.037 18.3876 11.2758 18.064 11.5836C17.7404 11.8914 17.4827 12.2618 17.3066 12.6722C17.1306 13.0827 17.0398 13.5247 17.0398 13.9713C17.0398 14.4179 17.1306 14.8599 17.3066 15.2704C17.4827 15.6809 17.7404 16.0512 18.064 16.3591C18.3876 16.6669 18.7704 16.9057 19.1892 17.061C19.608 17.2163 20.0539 17.2849 20.5 17.2625C20.9461 17.2849 21.392 17.2163 21.8108 17.061C22.2296 16.9057 22.6124 16.6669 22.936 16.3591C23.2596 16.0512 23.5173 15.6809 23.6934 15.2704C23.8694 14.8599 23.9602 14.4179 23.9602 13.9713C23.9602 13.5247 23.8694 13.0827 23.6934 12.6722C23.5173 12.2618 23.2596 11.8914 22.936 11.5836C22.6124 11.2758 22.2296 11.037 21.8108 10.8816C21.392 10.7263 20.9461 10.6578 20.5 10.6801ZM33.7143 2H7.28571C4.37031 2 2 4.37031 2 7.28571V33.7143C2 36.6297 4.37031 39 7.28571 39H33.7143C36.6297 39 39 36.6297 39 33.7143V7.28571C39 4.37031 36.6297 2 33.7143 2ZM20.5 7.27746C22.2753 7.27746 23.9779 7.9827 25.2333 9.23804C26.4886 10.4934 27.1939 12.196 27.1939 13.9713C27.1939 15.7466 26.4886 17.4492 25.2333 18.7046C23.9779 19.9599 22.2753 20.6652 20.5 20.6652C18.7247 20.6652 17.0221 19.9599 15.7667 18.7046C14.5114 17.4492 13.8061 15.7466 13.8061 13.9713C13.8061 12.196 14.5114 10.4934 15.7667 9.23804C17.0221 7.9827 18.7247 7.27746 20.5 7.27746ZM25.3975 21.1772C26.785 20.0871 27.8339 20.723 28.2138 21.4746C28.858 22.796 28.123 23.4319 26.4382 24.5304C25.0259 25.4306 23.0768 25.7857 21.7967 25.9179L22.8703 26.9833L26.8098 30.9228C28.2469 32.4011 25.9013 34.7054 24.4478 33.2848C23.4567 32.2772 22.0114 30.8319 20.5083 29.3288L16.5687 33.2848C15.1069 34.7054 12.7696 32.3763 14.2232 30.9228L15.2556 29.8904C16.1145 29.0315 17.1221 28.0156 18.1627 26.9833L19.2281 25.9179C17.9563 25.7857 15.9824 25.4471 14.5536 24.5304C12.877 23.4319 12.1337 22.8042 12.7862 21.4746C13.1661 20.723 14.215 20.0871 15.6025 21.1772C15.6025 21.1772 17.4772 22.6638 20.5 22.6638C23.5228 22.6638 25.3975 21.1772 25.3975 21.1772Z" fill="white"/>
</svg>
