<svg width="40" height="40" viewBox="0 0 40 40" fill="none" xmlns="http://www.w3.org/2000/svg">
<path d="M3.625 3.625C1 6.275 1 10.5125 1 19V20.5C1 28.975 1 33.2125 3.625 35.875C6.275 38.5 10.5125 38.5 19 38.5H20.5C28.975 38.5 33.2125 38.5 35.875 35.875C38.5 33.225 38.5 28.9875 38.5 20.5V19C38.5 10.525 38.5 6.2875 35.875 3.625C33.225 1 28.9875 1 20.5 1H19C10.525 1 6.2875 1 3.625 3.625ZM7.325 12.4125H11.625C11.7625 19.5625 14.9125 22.5875 17.4125 23.2125V12.4125H21.45V18.575C23.9125 18.3125 26.5125 15.5 27.3875 12.4H31.4125C31.0841 14.0046 30.4284 15.5243 29.4864 16.8642C28.5444 18.2041 27.3363 19.3354 25.9375 20.1875C27.4988 20.9643 28.8777 22.0634 29.983 23.4122C31.0884 24.7611 31.8951 26.329 32.35 28.0125H27.9125C26.9625 25.05 24.5875 22.75 21.45 22.4375V28.0125H20.95C12.4 28.0125 7.525 22.1625 7.325 12.4125Z" fill="white"/>
</svg>
