<svg width="50" height="50" viewBox="0 0 50 50" fill="none" xmlns="http://www.w3.org/2000/svg">
<path d="M25 47.3957C37.3689 47.3957 47.3958 37.3687 47.3958 24.9998C47.3958 12.631 37.3689 2.604 25 2.604C12.6311 2.604 2.60416 12.631 2.60416 24.9998C2.60416 37.3687 12.6311 47.3957 25 47.3957Z" stroke="#A5A5A5" stroke-width="1.04167" stroke-linecap="round" stroke-linejoin="round"/>
<path d="M19.4792 22.1874C19.4794 21.3694 19.6613 20.5616 20.0116 19.8224C20.362 19.0832 20.8721 18.431 21.5051 17.9128C22.1382 17.3947 22.8783 17.0236 23.6722 16.8263C24.4661 16.6289 25.2939 16.6103 26.0958 16.7718C28.4114 17.2166 30.2594 19.2197 30.4906 21.5655C30.6614 23.3114 30.1094 25.0332 28.9042 26.0916C26.6708 28.0509 19.4792 33.3332 19.4792 33.3332H30.5208" stroke="#A5A5A5" stroke-width="1.04167" stroke-linecap="round" stroke-linejoin="round"/>
</svg>
