<svg width="50" height="50" viewBox="0 0 50 50" fill="none" xmlns="http://www.w3.org/2000/svg">
<path d="M25 47.3957C37.3689 47.3957 47.3958 37.3687 47.3958 24.9998C47.3958 12.631 37.3689 2.604 25 2.604C12.6311 2.604 2.60416 12.631 2.60416 24.9998C2.60416 37.3687 12.6311 47.3957 25 47.3957Z" stroke="#A5A5A5" stroke-width="1.04167" stroke-linecap="round" stroke-linejoin="round"/>
<path d="M20.0021 31.927C21.1521 32.8916 22.3948 33.3333 25.1844 33.3333H25.8344C26.9393 33.333 27.9988 32.8939 28.78 32.1125C29.5612 31.3311 30 30.2715 30 29.1666C29.9994 28.0619 29.5602 27.0026 28.7789 26.2217C27.9975 25.4407 26.938 25.002 25.8333 25.002C26.9382 25.002 27.9979 24.5632 28.7792 23.782C29.5606 23.0008 29.9997 21.9413 30 20.8364C29.9997 19.7317 29.5608 18.6723 28.7796 17.8911C27.9985 17.11 26.9391 16.671 25.8344 16.6708L25.1865 16.6666C22.3958 16.6593 21.1531 17.0978 20 18.0583M22.6323 25.002H25.8344" stroke="#A5A5A5" stroke-width="1.04167" stroke-linecap="round" stroke-linejoin="round"/>
</svg>
